<svg width="22" height="22" viewBox="0 0 22 22" fill="none" xmlns="http://www.w3.org/2000/svg">
<g clip-path="url(#clip0_207_583)">
<mask id="mask0_207_583" style="mask-type:luminance" maskUnits="userSpaceOnUse" x="0" y="0" width="22" height="22">
<path d="M22 0H0V22H22V0Z" fill="white"/>
</mask>
<g mask="url(#mask0_207_583)">
<path d="M18.792 9.34118H16.1428C13.9703 9.34118 12.2012 7.57201 12.2012 5.39951V2.75035C12.2012 2.24618 11.7887 1.83368 11.2845 1.83368H7.39783C4.57449 1.83368 2.29199 3.66701 2.29199 6.93951V15.0612C2.29199 18.3337 4.57449 20.167 7.39783 20.167H14.6028C17.4262 20.167 19.7087 18.3337 19.7087 15.0612V10.2578C19.7087 9.75368 19.2962 9.34118 18.792 9.34118Z" fill="white"/>
<path d="M14.4837 2.02661C14.1079 1.65078 13.457 1.90744 13.457 2.42994V5.62911C13.457 6.96744 14.5937 8.07661 15.9779 8.07661C16.8487 8.08578 18.0587 8.08578 19.0945 8.08578C19.617 8.08578 19.892 7.47161 19.5254 7.10494C18.2054 5.77578 15.8404 3.38328 14.4837 2.02661Z" fill="white"/>
</g>
</g>
<defs>
<clipPath id="clip0_207_583">
<rect width="22" height="22" fill="white"/>
</clipPath>
</defs>
</svg>
