<svg width="290" height="91" viewBox="0 0 290 91" fill="none" xmlns="http://www.w3.org/2000/svg">
<path d="M9.23523 69.2949V90.646H6V69.2949H9.23523ZM33.7465 69.2949V90.646H30.776L19.9821 75.0456H19.8056V90.646H16.5704V69.2949H19.5703L30.3642 84.9249H30.5702V69.2949H33.7465ZM52.699 74.9276C52.4932 72.9517 50.758 71.8016 48.3168 71.8016C45.6993 71.8016 44.0522 73.1287 44.0522 74.9571C44.0522 76.9919 46.258 77.7587 47.9345 78.1716L49.9933 78.7319C52.7285 79.3807 56.1108 80.8847 56.1402 84.748C56.1108 88.3457 53.2579 91 48.2286 91C43.464 91 40.464 88.6113 40.2582 84.7185H43.4934C43.6992 87.0482 45.7286 88.1689 48.2286 88.1689C50.9345 88.1689 52.905 86.7828 52.9344 84.689C52.905 82.8311 51.1697 82.0643 48.9051 81.4745L46.3758 80.7962C42.964 79.8525 40.817 78.1126 40.817 75.134C40.817 71.4477 44.111 69 48.405 69C52.7285 69 55.7579 71.4772 55.8461 74.9276H52.699ZM65.8577 69.2949V90.646H62.6224V69.2949H65.8577ZM87.5749 76.0482C86.7808 73.5121 84.8691 71.9785 82.0456 71.9785C78.4575 71.9785 75.6927 74.8096 75.6927 79.9705C75.6927 85.1313 78.428 87.9624 82.1927 87.9624C85.5897 87.9624 87.8396 85.8096 87.8983 82.3887H82.6631V79.7051H91.0454V82.1233C91.0454 87.5201 87.3397 90.9409 82.1632 90.9409C76.3986 90.9409 72.4869 86.7239 72.4869 79.9705C72.4869 73.1582 76.5163 69 82.0161 69C86.6337 69 90.1631 71.8901 90.8983 76.0482H87.5749ZM97.7923 90.646V69.2949H101.028V78.5549H111.616V69.2949H114.851V90.646H111.616V81.3271H101.028V90.646H97.7923ZM121.157 72.0965V69.2949H137.656V72.0965H131.039V90.646H127.803V72.0965H121.157ZM154.327 90.646V69.2949H161.915C166.856 69.2949 169.297 72.2735 169.297 76.2252C169.297 80.1474 166.856 83.1555 161.915 83.1555H157.562V90.646H154.327ZM157.562 80.3834H161.591C164.738 80.3834 166.032 78.6139 166.032 76.2252C166.032 73.807 164.738 72.067 161.591 72.067H157.562V80.3834ZM194.22 79.9705C194.22 86.7828 190.132 90.9409 184.631 90.9409C179.073 90.9409 175.014 86.7828 175.014 79.9705C175.014 73.1287 179.073 69 184.631 69C190.132 69 194.22 73.1287 194.22 79.9705ZM191.014 79.9705C191.014 74.7801 188.278 71.9785 184.631 71.9785C180.955 71.9785 178.219 74.7801 178.219 79.9705C178.219 85.1608 180.955 87.9624 184.631 87.9624C188.278 87.9624 191.014 85.1608 191.014 79.9705ZM215.29 76.2547C214.761 73.5121 212.496 71.9785 209.79 71.9785C206.114 71.9785 203.379 74.8096 203.379 79.9705C203.379 85.1608 206.143 87.9624 209.79 87.9624C212.466 87.9624 214.731 86.4583 215.29 83.7453L218.555 83.7748C217.879 87.9919 214.437 90.9409 209.76 90.9409C204.202 90.9409 200.173 86.7828 200.173 79.9705C200.173 73.1287 204.232 69 209.76 69C214.261 69 217.82 71.6542 218.555 76.2547H215.29ZM225.066 90.646V69.2949H228.302V79.4691H228.567L237.478 69.2949H241.537L232.949 78.9088L241.566 90.646H237.654L230.802 81.1206L228.302 84.0107V90.646H225.066ZM247.224 90.646V69.2949H260.578V72.0965H250.46V78.5549H259.872V81.3271H250.46V87.8444H260.695V90.646H247.224ZM266.501 72.0965V69.2949H283V72.0965H276.383V90.646H273.148V72.0965H266.501Z" fill="#6691FF"/>
<path d="M59.92 0.949998C59.82 0.699998 59.58 0.569998 59.34 0.559998C59.1 0.569998 58.86 0.699998 58.76 0.949998C58.46 1.66 38.69 49.94 38.69 49.94H43.76C44.99 49.94 45.68 49.38 46.21 48.1L59.34 16.12L72.47 48.1C73 49.38 73.69 49.94 74.92 49.94H79.99C79.99 49.95 60.22 1.66 59.92 0.949998Z" fill="#6691FF"/>
<path d="M193.32 1H186.45V50.22H193.32V1Z" fill="#6691FF"/>
<path d="M6.88 1.29H2.36C0.99 1.29 0 2.22 0 3.76V49.91H22.28C24.52 49.91 25.37 49.04 26.32 47.55C27.23 46.12 28.59 43.55 28.59 43.55H6.88V1.29Z" fill="#6691FF"/>
<path d="M120.25 35.62C120.25 35.62 93.5 1.68 92.95 1C92.65 0.630003 92.55 0.550003 92.3 0.550003C91.92 0.550003 91.75 0.840003 91.75 1.19C91.75 1.57 91.75 2.42 91.75 2.66V7.68V49.91H98.59V18.56C98.59 18.56 121.05 47.05 122.29 48.63C123.07 49.63 123.76 49.94 124.62 49.94C125.64 49.94 126.9 49.94 126.9 49.94V1.29H120.2L120.25 35.62Z" fill="#6691FF"/>
<path d="M170.95 45.91C170.03 44.47 169.19 43.63 167.1 43.57C167.05 43.57 167.01 43.56 166.96 43.56H150.04V28.1H169.77V22.09H150.05V7.66H161.36H167C169.17 7.64 170.02 6.78 170.95 5.32C171.91 3.82 173.23 1.29 173.23 1.29H161.36H143.1V49.93H161.36H173.15C173.15 49.93 172.36 48.33 171.6 46.96C171.37 46.59 171.15 46.23 170.95 45.91Z" fill="#6691FF"/>
<path d="M287.72 45.91C286.8 44.47 285.96 43.63 283.87 43.57C283.82 43.57 283.78 43.56 283.73 43.56H266.81V28.1H286.54V22.09H266.82V7.66H278.13H283.77C285.94 7.64 286.79 6.78 287.72 5.32C288.68 3.82 290 1.29 290 1.29H278.13H259.87V49.93H278.13H289.92C289.92 49.93 289.13 48.33 288.37 46.96C288.15 46.59 287.93 46.23 287.72 45.91Z" fill="#6691FF"/>
<path d="M244.91 12.38C243.99 9.57 242.18 6.79 240.18 4.84C238.7 3.4 237.42 2.54 235.51 1.67C233.04 0.54 230.05 0 227.02 0C213.29 0 206.37 11.51 206.37 25.72C206.37 34.05 208.26 40.77 212.89 45.47C216.16 48.79 220.8 51.2 227.02 51.2C234.97 51.2 240.95 47 243.44 42.07C244.04 40.88 244.52 39.96 244.91 38.64C246.06 34.83 246.09 30.43 246.09 25.71C246.09 25.66 246.08 24.03 246.08 24.03L238.29 24.05L226.78 24.08C227.1 24.7 227.87 26.05 228.77 27.52C229.73 29.1 230.62 30.06 232.93 30.06L239.01 30.07C239.01 30.07 239.01 31.18 238.9 32.51C238.61 36.03 237.85 39.08 235.18 41.54C233.03 43.52 229.91 44.38 227.02 44.38C223.32 44.38 220.32 43.02 217.95 40.61C214.07 36.66 213.43 30.47 213.43 25.71C213.43 21.31 214.67 6.71 227.29 6.71C229.09 6.71 230.88 6.97 232.5 7.8C234.35 8.74 235.88 10.17 236.96 11.91C237.82 13.31 238.58 14.64 240.42 14.64H245.62C245.55 14.34 245 12.67 244.91 12.38Z" fill="#6691FF"/>
</svg>
