<svg width="39" height="39" viewBox="0 0 39 39" fill="none" xmlns="http://www.w3.org/2000/svg">
<g clip-path="url(#clip0_43_288)">
<mask id="mask0_43_288" style="mask-type:luminance" maskUnits="userSpaceOnUse" x="0" y="0" width="39" height="39">
<path d="M39 0H0V39H39V0Z" fill="white"/>
</mask>
<g mask="url(#mask0_43_288)">
<path d="M31.0055 13.4712C31.0217 13.9587 30.7455 14.43 30.3067 14.6413L26.4053 16.4598C26.3068 16.5058 26.263 16.6221 26.3067 16.7216L27.8855 20.3125C28.0967 20.7838 27.983 21.32 27.6255 21.6775C27.268 22.035 26.7155 22.1162 26.2605 21.905L22.7342 20.28L21.0117 19.4837C20.5567 19.2887 20.2967 18.8337 20.2967 18.3787C20.2967 18.2163 20.3292 18.0375 20.4105 17.875C20.703 17.2575 21.418 16.9975 22.0355 17.2738L22.7342 17.5988L23.8798 18.1257C24.0471 18.2027 24.2207 18.0319 24.1464 17.8634L23.5142 16.4287C23.2542 15.8275 23.5142 15.1125 24.1155 14.8363L26.0887 13.9092C26.2515 13.8327 26.2385 13.597 26.0683 13.5389L23.7742 12.7562C23.433 12.6425 23.173 12.3825 23.043 12.0737C22.8967 11.7487 22.913 11.375 23.0755 11.0662L23.864 9.43997C23.9468 9.26923 23.7675 9.08997 23.5968 9.17275L21.9705 9.96125C21.6455 10.1237 21.288 10.14 20.963 9.99375C20.638 9.86375 20.3942 9.60375 20.2805 9.2625L19.6895 7.55119C19.6275 7.37157 19.3735 7.37157 19.3114 7.55119L18.7205 9.2625C18.6067 9.60375 18.363 9.86375 18.038 9.99375C17.713 10.14 17.3555 10.1237 17.0305 9.96125L15.4043 9.17276C15.2335 9.08998 15.0543 9.26924 15.1371 9.43998L15.9256 11.0662C16.0881 11.375 16.1043 11.7487 15.9581 12.0737C15.8281 12.3825 15.5681 12.6425 15.2268 12.7562L12.9328 13.5389C12.7625 13.597 12.7495 13.8327 12.9123 13.9092L14.8856 14.8363C15.4868 15.1125 15.7468 15.8275 15.4868 16.4287L14.8598 17.8394C14.7846 18.0087 14.9601 18.1804 15.1277 18.1016L16.2667 17.5663L16.9655 17.2412C17.5667 16.965 18.298 17.225 18.5742 17.8263C18.8667 18.4438 18.6067 19.175 17.9892 19.4513L16.2667 20.2638L12.7406 21.905C12.5781 21.9862 12.3993 22.0188 12.2368 22.0188C11.9118 22.0188 11.6031 21.905 11.3756 21.6775C11.0181 21.32 10.9043 20.7838 11.1156 20.3125L12.6943 16.7216C12.7381 16.6221 12.6943 16.5058 12.5957 16.4598L8.6943 14.6413C8.25555 14.43 7.9793 13.9587 7.99555 13.4712C8.02805 12.9675 8.35305 12.545 8.8243 12.3825L12.9168 10.9771C13.0304 10.9381 13.0843 10.8085 13.0318 10.7005L11.1318 6.7925C10.9043 6.32125 11.0018 5.76875 11.3756 5.395C11.7493 5.02125 12.3018 4.94 12.7568 5.1675L16.6648 7.06745C16.7728 7.11996 16.9024 7.06612 16.9414 6.95254L18.3467 2.86C18.5092 2.35625 18.9805 2.03125 19.5005 2.03125C20.0205 2.03125 20.4755 2.35625 20.6542 2.86L22.0596 6.95254C22.0986 7.06612 22.2282 7.11996 22.3362 7.06745L26.2442 5.1675C26.6992 4.94 27.268 5.0375 27.6255 5.395C27.9992 5.76875 28.0967 6.32125 27.8692 6.7925L25.9693 10.7005C25.9168 10.8085 25.9706 10.9381 26.0842 10.9771L30.1767 12.3825C30.648 12.545 30.973 12.9675 31.0055 13.4712Z" fill="white"/>
<path d="M19.4997 14.3647C17.7284 14.3647 16.2984 15.7947 16.2659 17.5659V29.0059C16.2659 29.6722 16.8022 30.2247 17.4847 30.2247H21.5147C22.1972 30.2247 22.7334 29.6722 22.7334 29.0059V17.5984C22.7334 15.811 21.2872 14.3647 19.4997 14.3647ZM18.7034 27.7872V17.6147C18.7034 17.1759 19.0609 16.8022 19.4997 16.8022C19.9384 16.8022 20.2959 17.1759 20.2959 17.6147V27.7872H18.7034Z" fill="white"/>
<path d="M19.5 36.9688C18.8338 36.9688 18.2812 36.4163 18.2812 35.7501V29.0063C18.2812 28.3401 18.8338 27.7876 19.5 27.7876C20.1662 27.7876 20.7188 28.3401 20.7188 29.0063V35.7501C20.7188 36.4163 20.1662 36.9688 19.5 36.9688Z" fill="white"/>
<path d="M5.26558 6.49997C4.95683 6.49997 4.64808 6.38622 4.40433 6.14247L2.38933 4.11122C1.91808 3.63997 1.91808 2.85997 2.38933 2.38872C2.86058 1.91747 3.64058 1.91747 4.11183 2.38872L6.12683 4.41997C6.59808 4.89122 6.59808 5.67122 6.12683 6.14247C5.88308 6.38622 5.57433 6.49997 5.26558 6.49997Z" fill="#D6E2FF"/>
<path d="M3.2507 25.2367C2.94195 25.2367 2.6332 25.1229 2.38945 24.8792C1.9182 24.4079 1.9182 23.6279 2.38945 23.1567L4.40445 21.1254C4.8757 20.6542 5.6557 20.6542 6.12695 21.1254C6.5982 21.5967 6.5982 22.3767 6.12695 22.8479L4.11195 24.8792C3.8682 25.1229 3.55945 25.2367 3.2507 25.2367Z" fill="#C1D2FF"/>
<path d="M35.7503 25.2367C35.4416 25.2367 35.1328 25.1229 34.8891 24.8792L32.8741 22.8479C32.4028 22.3767 32.4028 21.5967 32.8741 21.1254C33.3453 20.6542 34.1253 20.6542 34.5966 21.1254L36.6116 23.1567C37.0828 23.6279 37.0828 24.4079 36.6116 24.8792C36.3678 25.1229 36.0591 25.2367 35.7503 25.2367Z" fill="#A7C0FF"/>
<path d="M33.7353 6.49984C33.4266 6.49984 33.1178 6.38609 32.8741 6.14234C32.4028 5.67109 32.4028 4.89109 32.8741 4.41984L34.8891 2.38859C35.3603 1.91734 36.1403 1.91734 36.6116 2.38859C37.0828 2.85984 37.0828 3.63984 36.6116 4.11109L34.5966 6.14234C34.3528 6.38609 34.0441 6.49984 33.7353 6.49984Z" fill="#F1F5FF"/>
<path d="M5.2 14.7227H3.25C2.58375 14.7227 2.03125 14.1702 2.03125 13.5039C2.03125 12.8377 2.58375 12.2852 3.25 12.2852H5.2C5.86625 12.2852 6.41875 12.8377 6.41875 13.5039C6.41875 14.1702 5.86625 14.7227 5.2 14.7227Z" fill="#6691FF"/>
<path d="M35.7497 14.7227H33.7997C33.1334 14.7227 32.5809 14.1702 32.5809 13.5039C32.5809 12.8377 33.1334 12.2852 33.7997 12.2852H35.7497C36.4159 12.2852 36.9684 12.8377 36.9684 13.5039C36.9684 14.1702 36.4159 14.7227 35.7497 14.7227Z" fill="#F1F5FF"/>
<path d="M7.89788 10.0591C8.45431 10.0591 8.90538 9.608 8.90538 9.05157C8.90538 8.49515 8.45431 8.04407 7.89788 8.04407C7.34146 8.04407 6.89038 8.49515 6.89038 9.05157C6.89038 9.608 7.34146 10.0591 7.89788 10.0591Z" fill="#D6E2FF"/>
<path d="M8.04388 19.3536C8.60029 19.3536 9.05138 18.9025 9.05138 18.3461C9.05138 17.7897 8.60029 17.3386 8.04388 17.3386C7.48744 17.3386 7.03638 17.7897 7.03638 18.3461C7.03638 18.9025 7.48744 19.3536 8.04388 19.3536Z" fill="white"/>
<path d="M10.9368 26.5685C11.4933 26.5685 11.9443 26.1174 11.9443 25.561C11.9443 25.0046 11.4933 24.5535 10.9368 24.5535C10.3804 24.5535 9.92932 25.0046 9.92932 25.561C9.92932 26.1174 10.3804 26.5685 10.9368 26.5685Z" fill="#C1D2FF"/>
<path d="M31.1017 10.0591C31.6581 10.0591 32.1092 9.608 32.1092 9.05157C32.1092 8.49515 31.6581 8.04407 31.1017 8.04407C30.5453 8.04407 30.0942 8.49515 30.0942 9.05157C30.0942 9.608 30.5453 10.0591 31.1017 10.0591Z" fill="#F1F5FF"/>
<path d="M30.9557 19.3536C31.5121 19.3536 31.9632 18.9025 31.9632 18.3461C31.9632 17.7897 31.5121 17.3386 30.9557 17.3386C30.3993 17.3386 29.9482 17.7897 29.9482 18.3461C29.9482 18.9025 30.3993 19.3536 30.9557 19.3536Z" fill="#A7C0FF"/>
<path d="M28.0644 26.5685C28.6208 26.5685 29.0719 26.1174 29.0719 25.561C29.0719 25.0046 28.6208 24.5535 28.0644 24.5535C27.508 24.5535 27.0569 25.0046 27.0569 25.561C27.0569 26.1174 27.508 26.5685 28.0644 26.5685Z" fill="white"/>
</g>
</g>
<defs>
<clipPath id="clip0_43_288">
<rect width="39" height="39" fill="white"/>
</clipPath>
</defs>
</svg>
