<svg width="22" height="22" viewBox="0 0 22 22" fill="none" xmlns="http://www.w3.org/2000/svg">
<g clip-path="url(#clip0_207_570)">
<mask id="mask0_207_570" style="mask-type:luminance" maskUnits="userSpaceOnUse" x="0" y="0" width="22" height="22">
<path d="M22 0H0V22H22V0Z" fill="white"/>
</mask>
<g mask="url(#mask0_207_570)">
<path d="M19.25 5.48244C16.1975 5.17994 13.1267 5.02411 10.065 5.02411C8.25 5.02411 6.435 5.11578 4.62 5.29911L2.75 5.48244" stroke="#7A7A7A" stroke-width="1.375" stroke-linecap="round" stroke-linejoin="round"/>
<path d="M7.79199 4.55618L7.99366 3.35535C8.14033 2.48451 8.25033 1.83368 9.79949 1.83368H12.2012C13.7503 1.83368 13.8695 2.52118 14.007 3.36451L14.2087 4.55618" stroke="#7A7A7A" stroke-width="1.375" stroke-linecap="round" stroke-linejoin="round"/>
<path d="M17.279 8.37927L16.6832 17.6101C16.5824 19.0493 16.4999 20.1676 13.9424 20.1676H8.05737C5.49987 20.1676 5.41737 19.0493 5.31654 17.6101L4.7207 8.37927" stroke="#7A7A7A" stroke-width="1.375" stroke-linecap="round" stroke-linejoin="round"/>
<path d="M9.46875 15.1254H12.5212" stroke="#7A7A7A" stroke-width="1.375" stroke-linecap="round" stroke-linejoin="round"/>
<path d="M8.70801 11.4587H13.2913" stroke="#7A7A7A" stroke-width="1.375" stroke-linecap="round" stroke-linejoin="round"/>
</g>
</g>
<defs>
<clipPath id="clip0_207_570">
<rect width="22" height="22" fill="white"/>
</clipPath>
</defs>
</svg>
